<svg xmlns="http://www.w3.org/2000/svg" width="482.428" height="482.429" viewBox="0 0 482.428 482.429"><path fill="#f7725e" d="M381.163 57.8H306.07C302.322 25.315 274.685 0 241.213 0c-33.47 0-61.104 25.315-64.85 57.8h-75.098c-30.39 0-55.11 24.727-55.11 55.116v2.828c0 23.223 14.46 43.1 34.83 51.2V427.31c0 30.39 24.723 55.117 55.11 55.117h210.237c30.39 0 55.11-24.73 55.11-55.118V166.944c20.37-8.1 34.83-27.977 34.83-51.2v-2.827c0-30.39-24.722-55.118-55.11-55.118zm-139.95-31.66c19.038 0 34.928 13.644 38.444 31.66h-76.88c3.516-18.017 19.407-31.66 38.437-31.66zM375.306 427.31c0 15.978-13 28.98-28.973 28.98H136.096c-15.973 0-28.973-13.003-28.973-28.98v-256.45h268.182v256.45zm34.83-311.568c0 15.978-13 28.98-28.973 28.98H101.266c-15.973 0-28.973-13.002-28.973-28.98v-2.828c0-15.978 13-28.98 28.973-28.98h279.897c15.973 0 28.973 13.002 28.973 28.98v2.828z"/><path fill="#f7725e" d="M171.144 422.863c7.218 0 13.07-5.853 13.07-13.068V262.64c0-7.215-5.853-13.07-13.07-13.07-7.217 0-13.07 5.855-13.07 13.07v147.155c0 7.217 5.852 13.068 13.07 13.068zM241.214 422.863c7.218 0 13.07-5.853 13.07-13.068V262.64c0-7.215-5.854-13.07-13.07-13.07-7.217 0-13.07 5.855-13.07 13.07v147.155c0 7.217 5.852 13.068 13.07 13.068zM311.284 422.863c7.217 0 13.068-5.853 13.068-13.068V262.64c0-7.215-5.852-13.07-13.068-13.07-7.22 0-13.07 5.855-13.07 13.07v147.155c0 7.217 5.853 13.068 13.07 13.068z"/></svg>
