<svg xmlns="http://www.w3.org/2000/svg" viewBox="0 0 512.001 512.001"><path fill="#f7725e" d="M505.65 243.74l-54.78-38.62c-9.917-6.99-23.645.115-23.645 12.26v77.24c0 12.195 13.757 19.228 23.643 12.26l54.782-38.62c8.48-5.978 8.456-18.556 0-24.52z"/><path fill="#f7725e" d="M430.46 352.315c-7.17-4.146-16.346-1.698-20.495 5.474-35.236 60.914-101.1 101.806-176.367 101.806C121.334 459.596 30 368.263 30 256S121.334 52.405 233.597 52.405c75.317 0 141.153 40.932 176.366 101.806 4.148 7.172 13.327 9.62 20.495 5.474 7.17-4.148 9.62-13.324 5.474-20.495-40.524-70.057-116.21-116.786-202.335-116.786C104.487 22.404 0 126.88 0 256c0 129.11 104.476 233.597 233.597 233.597 86.16 0 161.83-46.762 202.337-116.787 4.147-7.17 1.697-16.346-5.474-20.495z"/><path fill="#f7725e" d="M164.192 241c-8.284 0-15 6.716-15 15 0 8.285 6.716 15 15 15h233.03v-30h-233.03z"/></svg>
