<svg xmlns="http://www.w3.org/2000/svg" viewBox="0 0 60 60"><path fill="#f7725e" d="M12.5 24h25c.552 0 1-.448 1-1s-.448-1-1-1h-25c-.552 0-1 .448-1 1s.448 1 1 1zM12.5 16h10c.552 0 1-.448 1-1s-.448-1-1-1h-10c-.552 0-1 .448-1 1s.448 1 1 1zM12.5 32h25c.552 0 1-.448 1-1s-.448-1-1-1h-25c-.552 0-1 .448-1 1s.448 1 1 1zM29.5 38h-17c-.552 0-1 .448-1 1s.448 1 1 1h17c.552 0 1-.448 1-1s-.448-1-1-1zM26.5 46h-14c-.552 0-1 .448-1 1s.448 1 1 1h14c.552 0 1-.448 1-1s-.448-1-1-1z"/><path fill="#f7725e" d="M48.5 34.363V14.586L33.914 0H1.5v60h44c7.168 0 13-5.832 13-13 0-6.134-4.276-11.277-10-12.637zm-14-30.95L45.086 14H34.5V3.414zM38.578 58H3.5V2h29v14h14v18.044c-.342-.03-.674-.044-1-.044-7.168 0-13 5.832-13 13 0 .4.025.792.06 1.183l.027.272c.043.382.098.76.173 1.13l.03.132c.072.338.16.67.257.998.025.082.048.165.074.246.114.353.24.7.38 1.038.028.064.058.126.085.19.13.295.27.584.42.868l.106.205c.176.318.364.627.565.928.046.07.094.135.14.203.184.265.376.522.577.77.038.048.074.097.113.144.23.278.475.544.728.8.062.064.125.125.19.187.244.24.495.472.758.69.024.02.046.042.07.06.282.233.577.45.88.66.072.05.146.1.22.148.077.05.15.103.228.152zm6.922 0c-6.065 0-11-4.935-11-11s4.935-11 11-11c.312 0 .62.02.926.047.29.028.592.066.91.12l.442.073C52.753 37.293 56.5 41.716 56.5 47c0 6.065-4.935 11-11 11z"/><path fill="#f7725e" d="M51.5 46h-5v-5c0-.552-.448-1-1-1s-1 .448-1 1v5h-5c-.552 0-1 .448-1 1s.448 1 1 1h5v5c0 .552.448 1 1 1s1-.448 1-1v-5h5c.552 0 1-.448 1-1s-.448-1-1-1z"/></svg>
